<?xml version="1.0" encoding="utf-8"?>
<!-- Generator: Adobe Illustrator 16.0.0, SVG Export Plug-In . SVG Version: 6.00 Build 0)  -->
<!DOCTYPE svg PUBLIC "-//W3C//DTD SVG 1.1//EN" "http://www.w3.org/Graphics/SVG/1.1/DTD/svg11.dtd">
<svg version="1.1" id="Layer_1" xmlns="http://www.w3.org/2000/svg" xmlns:xlink="http://www.w3.org/1999/xlink" x="0px" y="0px"
	 width="170px" height="60px" viewBox="0 0 170 60" enable-background="new 0 0 170 60" xml:space="preserve">
<g>
	<path fill-rule="evenodd" clip-rule="evenodd" fill="#2574BB" d="M72.416,42.737l-1.44-4.152c-0.04-0.122-0.093-0.335-0.156-0.631
		c-0.066-0.3-0.132-0.665-0.203-1.1c-0.075,0.417-0.15,0.791-0.219,1.12c-0.069,0.332-0.124,0.552-0.159,0.662l-1.388,4.101H72.416
		L72.416,42.737z M64.233,47.626l4.891-12.851h3.143l4.96,12.851h-3.124l-1.045-2.731h-4.979l-0.895,2.731H64.233L64.233,47.626z
		 M78.229,35.48c0-0.399,0.144-0.74,0.429-1.028c0.287-0.287,0.629-0.431,1.027-0.431c0.405,0,0.749,0.141,1.04,0.425
		c0.291,0.285,0.435,0.629,0.435,1.034c0,0.406-0.144,0.751-0.435,1.039c-0.291,0.287-0.635,0.431-1.04,0.431
		c-0.398,0-0.74-0.146-1.027-0.439C78.374,36.217,78.229,35.875,78.229,35.48L78.229,35.48z M78.446,47.626v-8.608h2.497v8.608
		H78.446L78.446,47.626z M85.893,41.23c0.252-0.839,0.611-1.464,1.08-1.878c0.475-0.416,1.055-0.623,1.752-0.623
		c0.156,0,0.416,0.03,0.779,0.087c0.072,0.012,0.122,0.021,0.158,0.027l-0.377,2.689c-0.186-0.078-0.373-0.138-0.566-0.177
		c-0.189-0.039-0.389-0.057-0.598-0.057c-0.762,0-1.31,0.193-1.642,0.584c-0.333,0.39-0.501,1.043-0.501,1.956v3.786h-2.498v-8.608
		h2.462L85.893,41.23z"/>
	<path fill-rule="evenodd" clip-rule="evenodd" fill="#2574BB" d="M94.508,47.626l-4.744-12.851h3.035l2.503,8.013
		c0.045,0.165,0.12,0.471,0.219,0.913c0.099,0.446,0.207,0.954,0.317,1.519c0.075-0.551,0.158-1.039,0.252-1.464
		c0.09-0.428,0.18-0.779,0.267-1.055l2.537-7.926h3.001l-4.78,12.851H94.508z"/>
	<path fill-rule="evenodd" clip-rule="evenodd" fill="#2574BB" d="M102.937,35.48c0-0.399,0.144-0.74,0.429-1.028
		c0.288-0.287,0.629-0.431,1.028-0.431c0.403,0,0.748,0.141,1.037,0.425c0.292,0.285,0.436,0.629,0.436,1.034
		c0,0.406-0.144,0.751-0.436,1.039c-0.289,0.287-0.634,0.431-1.037,0.431c-0.399,0-0.74-0.147-1.028-0.439
		C103.08,36.217,102.937,35.875,102.937,35.48L102.937,35.48z M103.153,47.626v-8.608h2.497v8.608H103.153z"/>
	<polygon fill-rule="evenodd" clip-rule="evenodd" fill="#2574BB" points="108.493,47.626 108.493,40.976 107.289,40.976 
		107.289,39.018 108.493,39.018 108.493,36.16 110.99,36.16 110.99,39.018 112.195,39.018 112.195,40.976 110.99,40.976 
		110.99,47.626 	"/>
	<path fill-rule="evenodd" clip-rule="evenodd" fill="#2574BB" d="M120.082,42.965c0-0.773-0.195-1.383-0.584-1.833
		c-0.39-0.452-0.914-0.676-1.576-0.676c-0.68,0-1.213,0.224-1.602,0.67c-0.39,0.449-0.584,1.061-0.584,1.839
		s0.191,1.387,0.575,1.818c0.382,0.435,0.913,0.65,1.593,0.65c0.691,0,1.228-0.216,1.608-0.65
		C119.894,44.352,120.082,43.743,120.082,42.965L120.082,42.965z M122.367,47.284h-2.427l0.037-1.237
		c-0.339,0.545-0.747,0.943-1.226,1.198c-0.476,0.255-1.058,0.381-1.74,0.381c-1.142,0-2.061-0.426-2.761-1.273
		c-0.698-0.848-1.049-1.968-1.049-3.358c0-1.452,0.344-2.581,1.03-3.39c0.688-0.812,1.644-1.216,2.866-1.216
		c0.638,0,1.198,0.144,1.68,0.428c0.483,0.288,0.89,0.714,1.217,1.278v-1.419h2.372V47.284z"/>
	<path fill-rule="evenodd" clip-rule="evenodd" fill="#2574BB" d="M127.181,47.626h-2.499v-8.608h2.499v1.348
		c0.411-0.566,0.848-0.979,1.312-1.243c0.464-0.261,0.995-0.393,1.584-0.393c0.716,0,1.298,0.147,1.744,0.438
		c0.45,0.294,0.767,0.733,0.952,1.32c0.398-0.58,0.848-1.021,1.354-1.313c0.507-0.297,1.062-0.444,1.663-0.444
		c0.607,0,1.123,0.114,1.549,0.339c0.422,0.225,0.752,0.561,0.985,1.013c0.123,0.245,0.209,0.521,0.263,0.832
		c0.052,0.309,0.078,0.778,0.078,1.411v0.272v5.029h-2.498v-4.26c0-1.046-0.106-1.743-0.32-2.088
		c-0.212-0.345-0.587-0.519-1.117-0.519c-0.645,0-1.108,0.24-1.398,0.72c-0.291,0.481-0.435,1.265-0.435,2.354v3.793h-2.498v-4.26
		c0-1.013-0.099-1.695-0.299-2.052c-0.198-0.359-0.542-0.535-1.028-0.535c-0.662,0-1.144,0.238-1.44,0.725
		c-0.299,0.481-0.449,1.258-0.449,2.329V47.626z"/>
	<rect x="141.147" y="39.018" fill-rule="evenodd" clip-rule="evenodd" fill="#2574BB" width="2.497" height="8.608"/>
	<path fill-rule="evenodd" clip-rule="evenodd" fill="#2574BB" d="M140.933,36.012c0-0.398,0.143-0.74,0.428-1.027
		c0.287-0.288,0.629-0.431,1.026-0.431c0.405,0,0.749,0.14,1.04,0.424c0.291,0.285,0.435,0.629,0.435,1.034
		c0,0.407-0.144,0.752-0.435,1.04c-0.291,0.287-0.635,0.431-1.04,0.431c-0.397,0-0.739-0.147-1.026-0.44
		C141.075,36.748,140.933,36.407,140.933,36.012z"/>
	<path fill-rule="evenodd" clip-rule="evenodd" fill="#2574BB" d="M146.183,47.626v-8.608h2.444v1.348
		c0.452-0.561,0.935-0.971,1.452-1.236c0.519-0.268,1.094-0.399,1.726-0.399c0.665,0,1.225,0.114,1.678,0.339
		c0.454,0.225,0.812,0.566,1.074,1.027c0.13,0.239,0.223,0.512,0.276,0.812c0.057,0.303,0.083,0.772,0.083,1.417v0.272v5.029h-2.497
		v-4.26c0-1.058-0.123-1.758-0.369-2.097c-0.245-0.338-0.667-0.51-1.264-0.51c-0.344,0-0.661,0.073-0.952,0.216
		c-0.288,0.145-0.531,0.348-0.722,0.611c-0.153,0.203-0.265,0.438-0.33,0.7c-0.068,0.265-0.102,0.666-0.102,1.205v0.341v3.793
		H146.183z"/>
	<path fill-rule="evenodd" clip-rule="evenodd" fill="#2574BB" d="M41.886,21.661c-0.804,0.497-5.613,1.255-7.011,1.399
		c-4.698,0.482-10.032-0.103-14.324-1.87c-1.048-0.431-1.856-0.877-2.761-1.387c-0.375-0.211-2.35-1.392-2.493-1.539
		c-0.61-0.04-0.232-0.061-0.354,0.123c0.301,1.159,3.721,3.488,4.834,4.17c11.222,6.878,19.924,4.296,21.958,4.678l0.105,1.8
		c-3.788,0.352-7.706,0.264-11.482-0.343c-1.129-0.182-2.481-0.616-3.448-0.685c1.282,0.91,5.083,2.26,6.977,2.821
		c2.924,0.866,5.16,1.127,8.334,1.614c1.4,3.44,2.308,13.31,8.57,12.104c1.242-0.238,2.78-1.277,3.123-2.174l-0.658,0.322
		c-0.484,0.766-3.706,1.888-6.597-2.374c-1.154-1.7-2.638-5.166-2.867-7.74c2.558-0.078,4.723,0.011,7.276-0.236
		c1.08-0.105,6.141-1.066,6.442-1.018c0.295-1.49,0.402-3.918,0.392-5.466c-0.736,0.008-2.861,0.638-3.647,0.833
		c-1.171,0.29-2.342,0.552-3.54,0.831c-1.891,0.441-5.535,1.288-7.487,1.317l-0.104-1.838c6.259-0.798,9.92-2.392,14.728-3.258
		c0.052-0.985-0.175-5.639-0.535-6.247c-0.178-0.153,0.263-0.195-0.504-0.106l-3.443,0.831c-1.453,0.435-9.353,2.958-10.038,3.048
		c0.126-2.683,1.357-6.58,2.523-8.328c2.61-3.913,5.238-1.228,5.942,0.705c-0.267,0.271-0.525,0.294-0.815,0.474
		c0.21,0.394,0.77,0.85,1.122,1.208c0.406,0.415,0.906,0.8,1.02,1.182c0.452,0.218,0.311,0.382,0.699,0.386l0.027-3.945
		l-0.872,0.314l-0.616-1.158c-0.239-0.113-0.736-0.9-1.118-1.25c-0.394-0.361-1.151-0.728-1.434-0.957
		c-2.174-0.398-1.597-0.083-2.993,0.299c0.55-0.983,1.812-2.296,2.981-2.792c2.177-0.923,3.023,0.069,4.356,0.796
		c-1.014-1.571-3.503-3.164-6.053-1.658c-1.34,0.791-2.401,2.239-3.148,3.601C42.993,13.733,42.316,17.594,41.886,21.661z"/>
	<path fill-rule="evenodd" clip-rule="evenodd" fill="#00A651" d="M44.766,8.912c0.178,0.287-0.134,0.511,0.306-0.036
		c0.331-0.414,0.72-1.459,1.961-2.568c4.215-3.766,8.151,0.565,9.207,3.551c0.501,0.508,2.087,5.115,2,6.056
		c0.663,0.819,1.028,7.91,1.036,8.633c0.011,1.018-0.145,7.688-0.902,8.811c0.104,0.814-2.294,8.487-5.976,5.958
		c-0.599-0.412-1.628-1.646-1.865-2.6l0.886-0.304c-0.246-0.501-2.541-2.737-2.818-2.86l-0.075,3.954l0.915-0.244
		c0.547,1.532,2.061,2.771,2.212,3.047c0.771,0.327,1.314,0.789,2.486,0.71c1.143-0.077,1.512-0.616,2.273-0.995
		c-0.506,1.814-2.847,4.989-5.113,5.597c-2.651,0.713-4.601-1.241-5.882-3.11c-0.238-0.349-0.342-0.618-0.682-0.852
		c0.226,1.238,1.382,2.4,1.764,3.384c0.05,0.04,0.045,0.028,0.152,0.154c0.01,0.012,0.127,0.167,0.146,0.194
		c0.086,0.117,0.138,0.202,0.246,0.349c0.221,0.297,0.33,0.427,0.541,0.645c2.399,2.485,4.952,1.531,5.553,1.642
		c0.114-0.104,0.067-0.077,0.245-0.187l0.984-0.438c1.107-0.542,2.162-1.499,2.894-2.438c0.842-1.083,1.677-2.618,2.218-3.938
		l0.379-0.637c-0.012-0.195,1.208-4.14,1.388-4.951c0.193-0.866,0.782-5.152,0.929-5.464c1.111-0.705,6.889-1.884,8.638-2.147
		c8.755-1.314,14.137,0.968,21.536,4.692c1.227,0.618,2.454,1.318,3.552,1.698l-1.083-0.877l-4.236-2.96
		c-0.046-0.029-0.239-0.145-0.287-0.186c-0.257-0.231-0.15-0.048-0.238-0.354c-0.475-0.042-2.162-1.323-2.691-1.689
		c-2.59-1.79-5.815-3.344-9.107-4.043c-2.596-0.551-5.437-0.702-8.224-0.486c-1.33,0.104-2.638,0.248-3.941,0.44
		c-0.844,0.125-3.132,0.66-3.758,0.592l-0.003-1.98c4.451-0.942,8.971-1.448,13.837-1.106c2.193,0.154,4.57,0.503,6.506,1.075
		c3.334,0.983,4.133,2.109,5.064,2.479c-0.725-1.499-2.807-3.201-4.241-4.122l-1.621-1.033c-0.011-0.044-0.046-0.047-0.067-0.072
		c-0.457,0.002-2.291-0.967-2.976-1.223c-1.025-0.385-2.104-0.707-3.234-1.019c-1.128-0.313-2.375-0.537-3.551-0.717
		c-1.148-0.175-2.815-0.229-3.764-0.394l-4.555,0.001c-0.687,0.026-1.443,0.205-2.132,0.043c-0.248-0.916-0.356-1.91-0.592-2.817
		c-0.226-0.876-0.486-1.708-0.766-2.551c-0.296-0.886-0.61-1.624-0.981-2.456c-0.268-0.601-1.039-1.793-1.053-2.197
		c-0.255-0.162-0.079-0.017-0.291-0.246l-0.492-0.695c-0.986-1.318-2.427-2.066-2.552-2.383c-0.558-0.064-1.102-0.429-1.695-0.598
		C47.855,1.125,45.496,8.01,44.766,8.912z"/>
	<path fill-rule="evenodd" clip-rule="evenodd" d="M65.555,55.918V51.35h0.869l1.827,3.061V51.35h0.831v4.568h-0.898l-1.798-3.003
		v3.003H65.555L65.555,55.918z M70.03,55.918V51.35h3.285v0.772h-2.386v1.014h2.219v0.771h-2.219v1.238H73.4v0.772H70.03
		L70.03,55.918z M76.227,54.239v-0.771h1.926v1.822c-0.187,0.188-0.458,0.353-0.814,0.497C76.983,55.93,76.623,56,76.258,56
		c-0.464,0-0.868-0.1-1.213-0.3c-0.344-0.201-0.604-0.489-0.776-0.863c-0.173-0.373-0.26-0.78-0.26-1.22
		c0-0.476,0.097-0.899,0.29-1.27c0.195-0.371,0.478-0.655,0.85-0.854c0.285-0.151,0.638-0.228,1.062-0.228
		c0.55,0,0.981,0.118,1.291,0.357c0.309,0.239,0.508,0.567,0.597,0.988l-0.893,0.173c-0.062-0.225-0.179-0.402-0.352-0.532
		c-0.172-0.13-0.386-0.194-0.645-0.194c-0.392,0-0.702,0.127-0.933,0.383c-0.229,0.257-0.345,0.636-0.345,1.139
		c0,0.544,0.117,0.951,0.35,1.222c0.234,0.271,0.541,0.407,0.919,0.407c0.187,0,0.375-0.038,0.563-0.114
		c0.189-0.074,0.351-0.167,0.486-0.275v-0.58H76.227L76.227,54.239z M82.98,55.918h-0.968l-0.383-1.041H79.85l-0.368,1.041h-0.951
		l1.723-4.568h0.949L82.98,55.918L82.98,55.918z M81.338,54.105l-0.616-1.691l-0.6,1.691H81.338L81.338,54.105z M83.998,55.918
		h0.899v-3.796h1.306V51.35h-3.519v0.772h1.314V55.918L83.998,55.918z M86.753,55.918V51.35h0.899v4.568H86.753L86.753,55.918z
		 M89.642,55.918l-1.588-4.568h0.972l1.127,3.382l1.082-3.382h0.954l-1.579,4.568H89.642L89.642,55.918z M92.64,55.918V51.35h3.285
		v0.772h-2.386v1.014h2.218v0.771h-2.218v1.238h2.473v0.772H92.64L92.64,55.918z M102.263,55.918h-0.968l-0.383-1.041h-1.78
		l-0.368,1.041h-0.95l1.723-4.568h0.948L102.263,55.918L102.263,55.918z M100.621,54.105l-0.617-1.691l-0.6,1.691H100.621
		L100.621,54.105z M102.71,55.918V51.35h0.898v4.568H102.71L102.71,55.918z M104.463,55.918V51.35h1.887
		c0.475,0,0.818,0.042,1.034,0.124s0.387,0.228,0.516,0.437c0.129,0.211,0.195,0.449,0.195,0.72c0,0.343-0.099,0.626-0.293,0.85
		s-0.486,0.363-0.874,0.423c0.192,0.115,0.352,0.241,0.476,0.381c0.127,0.14,0.296,0.388,0.51,0.742l0.541,0.893h-1.071
		l-0.643-0.998c-0.23-0.354-0.389-0.577-0.475-0.67c-0.085-0.092-0.175-0.155-0.27-0.189c-0.096-0.033-0.246-0.051-0.453-0.051
		h-0.183v1.908H104.463L104.463,55.918z M105.36,53.283h0.663c0.431,0,0.698-0.02,0.806-0.058c0.106-0.037,0.19-0.101,0.251-0.192
		s0.091-0.206,0.091-0.344c0-0.154-0.04-0.277-0.12-0.374c-0.079-0.094-0.192-0.154-0.337-0.178
		c-0.073-0.011-0.291-0.016-0.653-0.016h-0.7V53.283L105.36,53.283z M110.629,55.918V51.35h0.898v4.568H110.629L110.629,55.918z
		 M112.195,53.661c0-0.466,0.068-0.857,0.204-1.174c0.101-0.233,0.238-0.442,0.413-0.627s0.366-0.322,0.573-0.414
		c0.276-0.118,0.596-0.18,0.957-0.18c0.655,0,1.178,0.21,1.571,0.628c0.393,0.419,0.589,1,0.589,1.746
		c0,0.737-0.195,1.315-0.584,1.733c-0.39,0.418-0.912,0.626-1.563,0.626c-0.66,0-1.186-0.207-1.575-0.623
		C112.391,54.963,112.195,54.391,112.195,53.661L112.195,53.661z M113.119,53.629c0,0.52,0.116,0.912,0.349,1.179
		c0.233,0.268,0.529,0.401,0.885,0.401c0.36,0,0.652-0.133,0.884-0.397c0.229-0.267,0.344-0.663,0.344-1.194
		c0-0.524-0.112-0.915-0.337-1.173c-0.223-0.258-0.519-0.386-0.891-0.386c-0.369,0-0.667,0.13-0.894,0.391
		S113.119,53.104,113.119,53.629L113.119,53.629z M117.202,55.918V51.35h0.869l1.826,3.061V51.35h0.831v4.568h-0.897l-1.799-3.003
		v3.003H117.202L117.202,55.918z M121.441,54.438l0.874-0.09c0.052,0.301,0.157,0.522,0.318,0.663
		c0.16,0.142,0.376,0.211,0.647,0.211c0.287,0,0.505-0.063,0.649-0.188c0.146-0.125,0.22-0.271,0.22-0.439
		c0-0.109-0.031-0.2-0.092-0.277c-0.062-0.074-0.169-0.141-0.322-0.195c-0.104-0.04-0.342-0.104-0.714-0.2
		c-0.478-0.123-0.813-0.275-1.006-0.454c-0.272-0.252-0.408-0.56-0.408-0.922c0-0.232,0.065-0.451,0.191-0.655
		c0.128-0.202,0.313-0.357,0.553-0.464c0.241-0.105,0.529-0.159,0.87-0.159c0.556,0,0.974,0.126,1.254,0.38
		c0.28,0.256,0.428,0.593,0.442,1.018l-0.898,0.032c-0.039-0.237-0.12-0.406-0.245-0.509s-0.313-0.156-0.563-0.156
		c-0.259,0-0.461,0.057-0.605,0.168c-0.095,0.07-0.143,0.165-0.143,0.284c0,0.108,0.044,0.2,0.134,0.277
		c0.113,0.099,0.386,0.2,0.821,0.307c0.434,0.105,0.756,0.217,0.964,0.329c0.208,0.114,0.371,0.269,0.489,0.464
		c0.118,0.198,0.176,0.439,0.176,0.728c0,0.262-0.069,0.507-0.212,0.736c-0.141,0.229-0.34,0.398-0.598,0.509
		c-0.259,0.112-0.581,0.167-0.966,0.167c-0.562,0-0.992-0.133-1.292-0.399C121.68,55.335,121.501,54.946,121.441,54.438
		L121.441,54.438z M127.533,55.918V51.35h3.049v0.772h-2.15v1.084h1.859v0.771h-1.859v1.94H127.533L127.533,55.918z M131.132,53.661
		c0-0.466,0.068-0.857,0.204-1.174c0.1-0.233,0.239-0.442,0.413-0.627c0.175-0.185,0.365-0.322,0.572-0.414
		c0.277-0.118,0.597-0.18,0.958-0.18c0.655,0,1.178,0.21,1.571,0.628c0.393,0.419,0.59,1,0.59,1.746
		c0,0.737-0.196,1.315-0.585,1.733c-0.39,0.418-0.912,0.626-1.563,0.626c-0.659,0-1.186-0.207-1.575-0.623
		C131.328,54.963,131.132,54.391,131.132,53.661L131.132,53.661z M132.056,53.629c0,0.52,0.116,0.912,0.35,1.179
		c0.232,0.268,0.528,0.401,0.885,0.401c0.358,0,0.651-0.133,0.882-0.397c0.229-0.267,0.345-0.663,0.345-1.194
		c0-0.524-0.112-0.915-0.336-1.173c-0.223-0.258-0.52-0.386-0.891-0.386c-0.369,0-0.668,0.13-0.895,0.391
		S132.056,53.104,132.056,53.629L132.056,53.629z M136.139,55.918V51.35h1.887c0.475,0,0.819,0.042,1.034,0.124
		c0.216,0.082,0.388,0.228,0.517,0.437c0.129,0.211,0.194,0.449,0.194,0.72c0,0.343-0.097,0.626-0.293,0.85
		c-0.194,0.224-0.486,0.363-0.874,0.423c0.192,0.115,0.352,0.241,0.478,0.381c0.125,0.14,0.294,0.388,0.508,0.742l0.541,0.893
		h-1.071l-0.642-0.998c-0.231-0.354-0.389-0.577-0.475-0.67c-0.086-0.092-0.175-0.155-0.271-0.189
		c-0.096-0.033-0.246-0.051-0.453-0.051h-0.181v1.908H136.139L136.139,55.918z M137.038,53.283h0.663
		c0.429,0,0.696-0.02,0.804-0.058c0.106-0.037,0.191-0.101,0.251-0.192c0.061-0.092,0.092-0.206,0.092-0.344
		c0-0.154-0.041-0.277-0.121-0.374c-0.079-0.094-0.191-0.154-0.336-0.178c-0.073-0.011-0.292-0.016-0.654-0.016h-0.698V53.283
		L137.038,53.283z M142.36,55.918v-4.529h0.898v3.757h2.226v0.772H142.36L142.36,55.918z M146.09,55.918V51.35h0.898v4.568H146.09
		L146.09,55.918z M147.843,55.918V51.35h3.049v0.772h-2.149v1.084h1.858v0.771h-1.858v1.94H147.843L147.843,55.918z M151.629,55.918
		V51.35h3.284v0.772h-2.386v1.014h2.219v0.771h-2.219v1.238H155v0.772H151.629z"/>
</g>
</svg>
